<svg xmlns="http://www.w3.org/2000/svg" xmlns:xlink="http://www.w3.org/1999/xlink" width="421" zoomAndPan="magnify" viewBox="0 0 315.75 236.249991" height="315" preserveAspectRatio="xMidYMid meet" version="1.0"><defs><g/></defs><g fill="#e8e8e8" fill-opacity="1"><g transform="translate(144.161854, 169.262672)"><g><path d="M 14.792969 25.675781 C 26.933594 27.492188 45.074219 7.394531 47.167969 3.347656 C 47.308594 2.929688 47.585938 2.371094 47.867188 2.234375 C 48.007812 2.09375 48.144531 1.953125 48.007812 1.8125 C 48.007812 1.675781 48.007812 1.675781 48.144531 1.675781 C 48.5625 1.675781 49.960938 -0.417969 49.960938 -0.835938 C 49.820312 -1.117188 49.820312 -1.257812 50.097656 -1.257812 C 50.378906 -1.257812 51.914062 -3.628906 52.890625 -5.582031 C 54.984375 -9.769531 53.589844 -8.375 59.308594 -9.769531 C 66.148438 -11.441406 74.519531 -12.28125 80.800781 -12.28125 C 83.3125 -12.28125 84.148438 -12.28125 84.289062 -12.421875 C 84.570312 -13.117188 76.195312 -12.976562 76.195312 -12.699219 L 75.078125 -12.699219 C 74.101562 -12.839844 73.824219 -12.699219 73.542969 -12.421875 C 73.40625 -12.140625 73.265625 -12.140625 73.265625 -12.421875 C 73.542969 -13.257812 61.261719 -11.023438 59.03125 -10.464844 C 51.355469 -8.929688 57.914062 -8.929688 59.589844 -31.679688 C 60.984375 -49.679688 57.078125 -63.773438 50.9375 -75.917969 C 48.425781 -80.941406 49.402344 -76.195312 54.007812 -98.664062 C 54.566406 -101.453125 54.425781 -102.429688 53.449219 -103.128906 C 51.496094 -104.386719 50.519531 -103.269531 49.960938 -103.269531 C 49.539062 -103.269531 48.425781 -102.152344 47.449219 -101.734375 C 45.632812 -100.757812 43.679688 -97.824219 43.957031 -97.6875 C 43.957031 -97.6875 43.820312 -97.269531 43.539062 -96.847656 C 43.402344 -96.570312 43.121094 -95.871094 43.121094 -95.453125 L 42.84375 -94.476562 C 42.5625 -94.199219 42.285156 -91.546875 42.5625 -91.40625 C 42.5625 -91.40625 42.703125 -90.847656 42.703125 -90.289062 C 42.84375 -88.617188 43.679688 -86.242188 45.214844 -83.871094 C 46.75 -81.359375 47.726562 -79.683594 48.007812 -79.542969 C 48.285156 -79.265625 48.425781 -77.871094 48.007812 -77.453125 C 47.867188 -77.171875 47.726562 -76.753906 47.726562 -76.472656 C 47.726562 -75.636719 46.75 -75.078125 46.890625 -73.960938 C 46.890625 -73.960938 42.421875 -63.355469 42.285156 -63.355469 C 42.003906 -63.21875 38.097656 -56.101562 38.097656 -56.238281 C 38.097656 -55.679688 29.167969 -44.097656 28.46875 -43.121094 C 23.722656 -36.980469 19.117188 -33.632812 21.074219 -33.214844 C 22.050781 -32.933594 23.304688 -33.910156 24.980469 -36.421875 C 25.257812 -36.839844 35.027344 -50.378906 35.027344 -50.519531 C 35.027344 -50.796875 35.027344 -50.9375 35.167969 -50.9375 C 35.308594 -50.9375 35.726562 -51.355469 36.003906 -51.914062 C 36.703125 -52.890625 37.679688 -54.007812 37.539062 -54.144531 L 37.957031 -54.84375 C 38.515625 -55.402344 39.355469 -56.796875 39.355469 -57.078125 C 39.355469 -57.214844 39.355469 -57.214844 39.492188 -57.214844 C 39.632812 -57.214844 39.773438 -57.496094 39.910156 -57.773438 C 40.332031 -58.75 40.75 -58.613281 40.75 -59.171875 C 40.890625 -59.867188 42.421875 -61.683594 42.703125 -62.660156 C 42.84375 -63.078125 42.980469 -63.21875 42.980469 -63.21875 C 43.679688 -63.21875 48.5625 -77.03125 48.984375 -77.03125 C 49.679688 -77.03125 54.566406 -65.589844 54.566406 -65.308594 C 54.566406 -65.171875 54.84375 -64.472656 55.121094 -63.636719 C 56.238281 -60.84375 57.214844 -55.402344 57.214844 -55.402344 C 59.449219 -49.539062 59.589844 -24.28125 55.121094 -13.117188 C 53.726562 -10.1875 54.984375 -9.769531 51.074219 -8.652344 C 45.492188 -7.117188 44.515625 -6.558594 44.515625 -6.558594 C 44.378906 -6.558594 38.375 -4.1875 38.375 -4.046875 C 37.679688 -3.769531 37.398438 -3.488281 36.703125 -3.347656 C 35.308594 -2.371094 33.632812 -1.8125 34.328125 -1.675781 C 34.75 -1.535156 36.980469 -2.652344 36.980469 -2.929688 C 36.839844 -3.070312 37.121094 -3.070312 37.121094 -3.070312 C 37.261719 -2.792969 37.539062 -2.929688 39.214844 -3.628906 C 41.726562 -5.023438 41.445312 -4.324219 43.679688 -5.441406 C 44.378906 -5.859375 44.65625 -5.722656 44.65625 -6 C 44.65625 -6 44.796875 -6.140625 45.074219 -6.140625 L 47.449219 -6.699219 C 53.167969 -8.511719 53.589844 -8.929688 52.191406 -6.558594 C 51.914062 -6 51.632812 -5.441406 51.632812 -5.304688 C 51.632812 -4.746094 51.355469 -5.164062 51.074219 -4.464844 C 51.074219 -4.1875 45.214844 6.558594 31.816406 18.28125 C 23.585938 25.398438 15.210938 26.097656 12.421875 24.28125 C 10.605469 23.027344 10.328125 22.328125 10.746094 20.375 C 10.886719 19.398438 12.140625 16.746094 12.558594 16.1875 C 12.839844 16.046875 15.351562 12 18.140625 9.488281 C 19.117188 8.652344 20.515625 7.257812 20.652344 7.394531 C 20.652344 7.394531 20.792969 7.394531 20.792969 7.257812 C 20.792969 7.117188 21.074219 6.839844 21.628906 6.417969 C 23.027344 5.441406 22.46875 5.722656 24.5625 4.324219 C 25.816406 3.488281 26.097656 3.210938 25.675781 3.070312 C 25.539062 2.792969 22.886719 4.605469 22.46875 5.164062 C 22.328125 5.441406 22.050781 5.582031 21.910156 5.582031 C 20.652344 5.582031 0.699219 23.585938 14.792969 25.675781 Z M 49.261719 -81.5 C 48.703125 -80.800781 49.402344 -79.125 47.726562 -81.777344 C 45.492188 -85.125 41.726562 -90.429688 44.796875 -96.988281 C 46.75 -101.175781 50.65625 -102.851562 52.191406 -102.710938 C 53.308594 -102.570312 53.726562 -102.011719 53.589844 -101.734375 C 53.589844 -101.734375 53.589844 -100.894531 51.914062 -92.105469 C 50.9375 -86.800781 49.679688 -82.613281 49.679688 -82.613281 C 49.539062 -82.195312 49.402344 -81.636719 49.261719 -81.5 Z M 99.640625 -8.234375 C 100.058594 -7.675781 100.757812 -7.675781 100.617188 -8.234375 L 100.476562 -8.792969 C 100.476562 -10.328125 98.382812 -9.769531 96.847656 -10.464844 C 96.429688 -10.746094 95.734375 -10.886719 95.59375 -10.886719 C 95.3125 -10.886719 95.035156 -11.023438 95.035156 -11.164062 C 94.894531 -11.304688 92.664062 -11.582031 91.6875 -11.863281 C 87.5 -12.976562 88.753906 -13.257812 87.636719 -12.699219 C 87.21875 -12.558594 86.800781 -12.421875 86.523438 -12.558594 C 85.824219 -12.839844 84.570312 -12.699219 84.570312 -12.421875 C 84.570312 -12.28125 84.847656 -12.28125 84.988281 -12.28125 C 88.476562 -12 97.964844 -10.1875 99.640625 -8.234375 Z M 25.957031 2.929688 C 25.957031 2.929688 26.515625 2.929688 26.515625 2.792969 C 26.515625 2.792969 27.074219 2.929688 27.910156 2.234375 L 28.050781 2.09375 C 29.027344 1.675781 30.839844 0.140625 31.257812 0.140625 C 31.539062 0.140625 31.398438 -0.558594 31.539062 -0.277344 C 31.679688 0 33.074219 -0.699219 32.933594 -0.976562 C 32.933594 -1.117188 33.074219 -1.394531 33.351562 -1.394531 C 33.910156 -1.675781 33.351562 -1.675781 32.65625 -1.394531 L 31.398438 -0.558594 C 29.863281 0.140625 29.585938 0.417969 29.722656 0.558594 C 29.863281 0.558594 29.722656 0.699219 29.445312 0.699219 C 29.304688 0.558594 29.167969 0.558594 28.886719 0.835938 C 27.910156 1.394531 27.351562 1.535156 27.210938 1.953125 C 27.210938 2.09375 25.816406 2.792969 25.957031 2.929688 Z M 25.957031 2.929688 "/></g></g></g><g fill="#e8e8e8" fill-opacity="1"><g transform="translate(214.075977, 169.262672)"><g><path d="M 2.652344 -41.308594 C 2.792969 -41.167969 4.324219 -40.75 5.859375 -42.003906 C 7.535156 -43.402344 8.09375 -44.65625 8.652344 -47.585938 C 9.210938 -50.097656 9.210938 -50.097656 8.792969 -51.074219 C 8.375 -52.054688 7.257812 -53.726562 6.976562 -53.726562 C 6.417969 -53.867188 6.839844 -54.84375 4.882812 -54.566406 C 1.8125 -53.867188 -0.140625 -50.796875 3.347656 -44.9375 C 3.628906 -44.515625 4.464844 -44.238281 4.464844 -44.65625 C 4.605469 -44.9375 4.046875 -46.609375 3.628906 -47.167969 C 1.257812 -51.074219 4.324219 -54.703125 6.699219 -52.191406 C 9.90625 -48.425781 4.882812 -40.609375 2.792969 -43.121094 C 0.976562 -45.214844 2.09375 -48.007812 1.117188 -48.703125 C 0.140625 -49.402344 0.140625 -48.285156 0 -48.007812 C 0.277344 -47.449219 0 -47.308594 0.277344 -45.492188 C 0.699219 -45.074219 0.976562 -42.144531 2.652344 -41.308594 Z M 2.652344 -41.308594 "/></g></g></g><g fill="#e8e8e8" fill-opacity="1"><g transform="translate(225.937658, 169.262672)"><g><path d="M 0.558594 -7.394531 C 2.371094 -6 1.257812 -18.699219 2.652344 -29.027344 C 3.347656 -33.074219 2.511719 -36.5625 2.234375 -36.703125 C 1.675781 -37.121094 3.070312 -37.398438 5.441406 -37.539062 C 6.699219 -37.539062 7.117188 -37.398438 7.535156 -37.121094 C 8.511719 -36.285156 9.351562 -36.980469 8.375 -37.820312 C 6.976562 -39.214844 1.953125 -37.957031 1.535156 -38.65625 C 1.394531 -39.214844 1.257812 -49.121094 1.535156 -49.261719 L 1.535156 -50.238281 C 1.394531 -50.9375 1.257812 -59.308594 1.8125 -60.285156 C 6.417969 -69.078125 6.28125 -72.566406 6.28125 -77.3125 C 6.28125 -82.753906 6.140625 -83.589844 4.882812 -83.730469 C 4.1875 -83.730469 4.1875 -83.730469 3.628906 -82.894531 C 1.675781 -79.40625 1.117188 -71.871094 0.976562 -69.777344 C 0.140625 -59.03125 1.117188 -61.261719 -1.257812 -57.355469 C -2.929688 -54.425781 -3.90625 -53.589844 -2.929688 -53.03125 C -2.371094 -52.609375 -0.140625 -56.796875 0.140625 -57.355469 C 0.277344 -39.214844 0.417969 -39.910156 -0.417969 -40.191406 C -0.558594 -40.191406 -3.628906 -40.191406 -3.488281 -38.375 C -3.210938 -36.839844 -0.835938 -36.839844 0.417969 -36.839844 L 0.417969 -34.328125 C 0.558594 -21.074219 -0.277344 -7.953125 0.558594 -7.394531 Z M 1.675781 -62.519531 C 1.394531 -62.519531 2.371094 -72.566406 2.371094 -72.847656 C 2.792969 -77.3125 4.882812 -83.035156 4.882812 -81.777344 C 5.023438 -81.636719 5.859375 -76.195312 4.882812 -71.3125 C 4.324219 -68.378906 2.234375 -62.519531 1.675781 -62.519531 Z M -1.394531 -38.375 C -1.535156 -38.375 -1.675781 -38.375 -1.675781 -38.515625 C -1.675781 -38.933594 0 -38.796875 0.277344 -38.375 C 0.699219 -37.820312 -0.140625 -38.375 -1.394531 -38.375 Z M 1.394531 -30.839844 C 1.257812 -38.65625 1.8125 -34.886719 1.8125 -31.816406 C 1.953125 -29.304688 1.535156 -28.46875 1.394531 -30.839844 Z M 1.394531 -30.839844 "/></g></g></g><g fill="#e8e8e8" fill-opacity="1"><g transform="translate(232.63602, 169.262672)"><g><path d="M 0.699219 -58.890625 C 0.976562 -54.566406 3.210938 -58.613281 2.929688 -59.867188 C 2.652344 -60.566406 2.09375 -60.566406 1.394531 -60.984375 C 0.835938 -61.402344 0.558594 -60.707031 0.699219 -58.890625 Z M 2.652344 -41.445312 C 2.929688 -41.445312 3.210938 -41.445312 3.488281 -41.585938 C 5.304688 -42.421875 8.511719 -45.214844 9.769531 -46.75 C 9.90625 -47.027344 10.886719 -48.285156 10.328125 -48.285156 C 9.90625 -48.285156 9.351562 -47.585938 9.210938 -47.449219 C 8.929688 -47.167969 4.464844 -42.703125 2.792969 -42.703125 C -0.140625 -42.84375 2.511719 -52.054688 1.535156 -53.308594 C 1.257812 -53.589844 0.558594 -53.589844 0.417969 -53.167969 L 0.417969 -52.890625 C 0.277344 -52.191406 0 -47.867188 0 -47.867188 C 0.140625 -45.214844 -0.140625 -40.890625 2.652344 -41.445312 Z M 2.652344 -41.445312 "/></g></g></g><g fill="#e8e8e8" fill-opacity="1"><g transform="translate(241.985812, 169.262672)"><g><path d="M 0.140625 -42.84375 C 0.699219 -40.890625 3.347656 -39.492188 5.441406 -46.332031 C 6.558594 -50.097656 6.140625 -48.007812 6.417969 -46.332031 C 7.257812 -42.144531 6.976562 -40.050781 11.722656 -42.980469 C 14.792969 -45.074219 18.839844 -49.820312 15.351562 -47.167969 C 14.792969 -46.890625 11.863281 -43.820312 9.488281 -42.84375 C 7.257812 -41.867188 8.375 -50.796875 6.558594 -53.167969 C 5.859375 -54.144531 5.304688 -54.425781 4.605469 -54.144531 C 3.488281 -53.726562 -0.976562 -46.75 0.140625 -42.84375 Z M 1.8125 -42.421875 C 1.117188 -42.285156 0.976562 -45.214844 1.8125 -47.449219 C 2.511719 -49.539062 4.746094 -53.167969 5.304688 -53.167969 L 5.582031 -52.75 C 6.28125 -51.214844 3.210938 -42.703125 1.8125 -42.421875 Z M 1.8125 -42.421875 "/></g></g></g><g fill="#e8e8e8" fill-opacity="1"><g transform="translate(46.731019, 175.75538)"><g><path d="M 65.867188 -7.675781 C 67.683594 -6.976562 63.496094 -15.769531 61.683594 -24.28125 C 61.261719 -25.816406 56.9375 -42.421875 56.238281 -61.125 C 55.261719 -84.847656 57.214844 -96.710938 57.214844 -96.710938 C 57.214844 -97.40625 57.214844 -97.546875 56.65625 -97.6875 C 55.820312 -97.964844 55.820312 -97.40625 54.144531 -96.429688 C 49.679688 -93.917969 47.726562 -87.917969 46.191406 -84.570312 C 45.355469 -82.753906 44.796875 -80.800781 44.515625 -80.800781 C 44.515625 -80.800781 44.378906 -80.523438 44.378906 -80.242188 C 44.378906 -79.40625 41.726562 -72.425781 42.003906 -71.449219 C 42.003906 -71.3125 41.867188 -71.3125 41.726562 -71.3125 C 41.585938 -71.3125 41.445312 -70.613281 40.75 -67.125 C 39.910156 -63.773438 39.492188 -58.472656 39.074219 -61.960938 C 38.65625 -64.890625 39.632812 -96.152344 38.796875 -96.710938 C 38.238281 -97.269531 37.121094 -96.710938 37.121094 -96.429688 C 37.121094 -96.289062 36.980469 -96.289062 36.839844 -96.289062 C 35.863281 -96.570312 30.703125 -90.570312 30.5625 -90.011719 C 30.28125 -89.3125 29.722656 -89.730469 29.167969 -88.476562 C 28.609375 -87.082031 27.769531 -87.21875 27.492188 -86.382812 C 27.492188 -86.105469 27.210938 -85.683594 26.933594 -85.40625 C 26.375 -84.988281 25.957031 -84.429688 24.980469 -82.476562 C 24.140625 -81.078125 21.769531 -77.871094 21.769531 -76.894531 C 21.628906 -76.472656 20.792969 -75.917969 20.792969 -75.496094 C 20.792969 -75.359375 20.652344 -75.21875 20.515625 -75.21875 C 20.375 -75.21875 19.957031 -80.523438 20.09375 -81.5 C 20.234375 -82.476562 20.792969 -82.335938 20.515625 -83.171875 C 19.675781 -85.265625 19.398438 -108.152344 17.722656 -109.96875 C 17.304688 -110.664062 17.023438 -110.664062 16.328125 -110.246094 C 16.046875 -109.96875 15.910156 -109.546875 15.910156 -106.476562 C 15.910156 -106.339844 15.769531 -97.6875 17.023438 -96.710938 C 17.164062 -96.570312 17.582031 -93.222656 18.003906 -90.570312 C 19.257812 -83.589844 19.675781 -70.890625 19.117188 -70.890625 C 18.558594 -70.890625 14.933594 -62.101562 14.511719 -60.707031 C 14.375 -59.726562 13.957031 -60.285156 13.957031 -59.726562 C 13.957031 -59.589844 12.421875 -54.84375 12.140625 -53.726562 C 10.046875 -45.773438 9.351562 -37.539062 9.90625 -30.144531 C 10.046875 -26.097656 10.1875 -25.539062 10.328125 -25.121094 C 10.464844 -24.839844 10.605469 -24.699219 10.464844 -24.5625 C 10.328125 -24.421875 12.28125 -16.46875 16.886719 -14.234375 C 18.980469 -13.117188 19.257812 -13.535156 19.539062 -18.839844 C 20.09375 -26.792969 22.328125 -36.144531 20.652344 -70.753906 C 20.234375 -77.730469 36.285156 -96.710938 37.539062 -95.453125 C 38.65625 -94.199219 35.863281 -56.378906 39.492188 -54.984375 C 40.890625 -54.425781 40.332031 -56.519531 40.890625 -60.984375 C 42.144531 -69.496094 43.679688 -75.359375 44.097656 -76.335938 C 44.238281 -76.613281 48.5625 -90.570312 52.472656 -94.199219 C 53.167969 -94.753906 54.84375 -95.59375 55.679688 -96.011719 C 54.285156 -68.378906 54.425781 -69.777344 56.238281 -45.632812 C 56.9375 -35.726562 63.21875 -14.234375 63.773438 -11.863281 C 64.613281 -6.976562 64.890625 -8.09375 65.867188 -7.675781 Z M 17.722656 -14.792969 C 17.164062 -14.792969 11.441406 -18.140625 10.605469 -30.703125 C 9.351562 -49.539062 16.046875 -62.660156 18.839844 -68.9375 C 19.675781 -70.890625 19.957031 -72.984375 20.234375 -54.84375 C 20.234375 -51.632812 20.515625 -42.5625 20.375 -40.191406 C 20.234375 -38.238281 20.234375 -37.539062 20.375 -37.539062 C 20.515625 -37.398438 20.375 -37.261719 20.234375 -37.121094 C 19.816406 -36.5625 20.652344 -35.308594 20.375 -34.886719 C 20.234375 -34.75 19.816406 -30.144531 19.257812 -26.375 C 18.003906 -15.769531 18.421875 -14.792969 17.722656 -14.792969 Z M 17.722656 -14.792969 "/></g></g></g><g fill="#e8e8e8" fill-opacity="1"><g transform="translate(108.830393, 175.75538)"><g><path d="M 4.1875 -41.027344 C 4.605469 -41.167969 6.28125 -43.679688 6.558594 -44.378906 L 7.117188 -45.773438 C 8.09375 -47.726562 8.375 -50.097656 8.511719 -51.632812 C 8.652344 -51.773438 8.652344 -52.75 8.652344 -52.890625 C 8.792969 -52.609375 9.628906 -53.03125 9.769531 -53.726562 C 9.488281 -54.285156 8.929688 -54.285156 8.375 -54.285156 C 6.839844 -54.007812 7.816406 -50.796875 5.859375 -46.050781 C 5.582031 -45.492188 4.324219 -41.867188 3.070312 -42.703125 C 2.371094 -43.121094 1.8125 -44.238281 1.535156 -45.074219 C 0.558594 -48.703125 2.09375 -50.65625 2.511719 -51.632812 C 2.929688 -52.472656 3.210938 -52.472656 2.792969 -52.890625 C 2.371094 -53.308594 1.953125 -53.308594 1.675781 -53.03125 C 1.394531 -52.75 0.417969 -49.960938 0.277344 -49.402344 C -0.835938 -44.238281 2.511719 -40.332031 4.1875 -41.027344 Z M 4.1875 -41.027344 "/></g></g></g><g fill="#e8e8e8" fill-opacity="1"><g transform="translate(120.831615, 175.75538)"><g><path d="M 0.699219 -58.890625 C 0.976562 -54.566406 3.210938 -58.613281 2.929688 -59.867188 C 2.652344 -60.566406 2.09375 -60.566406 1.394531 -60.984375 C 0.835938 -61.402344 0.558594 -60.707031 0.699219 -58.890625 Z M 2.652344 -41.445312 C 2.929688 -41.445312 3.210938 -41.445312 3.488281 -41.585938 C 5.304688 -42.421875 8.511719 -45.214844 9.769531 -46.75 C 9.90625 -47.027344 10.886719 -48.285156 10.328125 -48.285156 C 9.90625 -48.285156 9.351562 -47.585938 9.210938 -47.449219 C 8.929688 -47.167969 4.464844 -42.703125 2.792969 -42.703125 C -0.140625 -42.84375 2.511719 -52.054688 1.535156 -53.308594 C 1.257812 -53.589844 0.558594 -53.589844 0.417969 -53.167969 L 0.417969 -52.890625 C 0.277344 -52.191406 0 -47.867188 0 -47.867188 C 0.140625 -45.214844 -0.140625 -40.890625 2.652344 -41.445312 Z M 2.652344 -41.445312 "/></g></g></g><g fill="#e8e8e8" fill-opacity="1"><g transform="translate(130.181407, 175.75538)"><g><path d="M 5.582031 -36.703125 C 5.859375 -36.980469 5.859375 -37.398438 5.859375 -37.957031 C 5.722656 -38.515625 5.722656 -38.65625 5.164062 -38.65625 C 4.1875 -38.515625 3.628906 -41.308594 3.210938 -42.144531 C 1.953125 -44.65625 0.976562 -53.449219 0.558594 -56.519531 C 0.417969 -58.191406 0.140625 -60.148438 1.257812 -61.542969 C 4.464844 -65.867188 8.234375 -74.101562 9.351562 -78.566406 C 10.1875 -81.21875 10.328125 -80.941406 10.464844 -82.335938 C 10.605469 -83.589844 10.886719 -83.3125 11.023438 -84.289062 L 11.441406 -86.800781 L 11.722656 -90.152344 C 12 -90.570312 11.722656 -93.777344 11.441406 -94.617188 C 11.023438 -96.152344 9.210938 -96.988281 8.234375 -96.289062 C 6.28125 -95.175781 3.90625 -87.917969 2.511719 -84.570312 C 1.394531 -81.636719 0.699219 -76.613281 0.558594 -74.800781 C 0.277344 -72.007812 0 -73.542969 -0.699219 -60.984375 C -1.117188 -60.285156 -2.234375 -59.03125 -2.929688 -58.613281 C -4.1875 -57.914062 -2.929688 -56.238281 -1.535156 -57.914062 L -0.835938 -58.75 C 0.277344 -48.5625 0.699219 -45.773438 1.535156 -43.261719 C 1.8125 -42.003906 2.652344 -40.332031 2.652344 -39.910156 C 2.652344 -39.773438 4.1875 -35.308594 5.582031 -36.703125 Z M 0.558594 -62.9375 L 0.558594 -63.355469 C 0.558594 -63.496094 1.675781 -77.171875 2.09375 -78.148438 C 2.09375 -78.148438 2.792969 -82.195312 4.882812 -87.21875 C 5.441406 -88.476562 6.976562 -93.777344 8.792969 -95.3125 C 9.210938 -95.734375 9.351562 -95.734375 10.046875 -95.035156 C 10.746094 -94.335938 10.746094 -94.335938 10.886719 -92.664062 C 11.304688 -86.941406 7.394531 -75.21875 7.394531 -75.777344 C 7.394531 -74.519531 1.257812 -62.9375 0.558594 -62.9375 Z M 0.558594 -62.9375 "/></g></g></g><g fill="#e8e8e8" fill-opacity="1"><g transform="translate(137.856614, 175.75538)"><g><path d="M 0.140625 -42.84375 C 0.699219 -40.890625 3.347656 -39.492188 5.441406 -46.332031 C 6.558594 -50.097656 6.140625 -48.007812 6.417969 -46.332031 C 7.257812 -42.144531 6.976562 -40.050781 11.722656 -42.980469 C 14.792969 -45.074219 18.839844 -49.820312 15.351562 -47.167969 C 14.792969 -46.890625 11.863281 -43.820312 9.488281 -42.84375 C 7.257812 -41.867188 8.375 -50.796875 6.558594 -53.167969 C 5.859375 -54.144531 5.304688 -54.425781 4.605469 -54.144531 C 3.488281 -53.726562 -0.976562 -46.75 0.140625 -42.84375 Z M 1.8125 -42.421875 C 1.117188 -42.285156 0.976562 -45.214844 1.8125 -47.449219 C 2.511719 -49.539062 4.746094 -53.167969 5.304688 -53.167969 L 5.582031 -52.75 C 6.28125 -51.214844 3.210938 -42.703125 1.8125 -42.421875 Z M 1.8125 -42.421875 "/></g></g></g></svg>