<svg xmlns="http://www.w3.org/2000/svg" xmlns:xlink="http://www.w3.org/1999/xlink" width="421" zoomAndPan="magnify" viewBox="0 0 315.75 229.499994" height="306" preserveAspectRatio="xMidYMid meet" version="1.0"><defs><g/></defs><g fill="#e8e8e8" fill-opacity="1"><g transform="translate(161.471036, 169.430885)"><g><path d="M 65.933594 -7.683594 C 67.75 -6.984375 63.558594 -15.785156 61.742188 -24.304688 C 61.324219 -25.84375 56.992188 -42.464844 56.296875 -61.183594 C 55.316406 -84.933594 57.273438 -96.804688 57.273438 -96.804688 C 57.273438 -97.503906 57.273438 -97.644531 56.714844 -97.785156 C 55.875 -98.0625 55.875 -97.503906 54.199219 -96.527344 C 49.730469 -94.011719 47.773438 -88.003906 46.238281 -84.652344 C 45.398438 -82.835938 44.839844 -80.882812 44.5625 -80.882812 C 44.5625 -80.882812 44.421875 -80.601562 44.421875 -80.320312 C 44.421875 -79.484375 41.765625 -72.5 42.046875 -71.523438 C 42.046875 -71.382812 41.90625 -71.382812 41.765625 -71.382812 C 41.628906 -71.382812 41.488281 -70.683594 40.789062 -67.191406 C 39.953125 -63.839844 39.53125 -58.53125 39.113281 -62.023438 C 38.695312 -64.957031 39.671875 -96.246094 38.835938 -96.804688 C 38.273438 -97.363281 37.15625 -96.804688 37.15625 -96.527344 C 37.15625 -96.386719 37.019531 -96.386719 36.878906 -96.386719 C 35.902344 -96.664062 30.730469 -90.660156 30.59375 -90.101562 C 30.3125 -89.402344 29.753906 -89.820312 29.195312 -88.5625 C 28.636719 -87.167969 27.796875 -87.308594 27.519531 -86.46875 C 27.519531 -86.1875 27.238281 -85.769531 26.960938 -85.492188 C 26.402344 -85.070312 25.984375 -84.511719 25.003906 -82.558594 C 24.167969 -81.160156 21.792969 -77.949219 21.792969 -76.96875 C 21.652344 -76.550781 20.8125 -75.992188 20.8125 -75.574219 C 20.8125 -75.433594 20.675781 -75.292969 20.535156 -75.292969 C 20.394531 -75.292969 19.976562 -80.601562 20.117188 -81.578125 C 20.253906 -82.558594 20.8125 -82.417969 20.535156 -83.253906 C 19.695312 -85.351562 19.417969 -108.261719 17.742188 -110.078125 C 17.320312 -110.773438 17.042969 -110.773438 16.34375 -110.355469 C 16.0625 -110.078125 15.925781 -109.65625 15.925781 -106.582031 C 15.925781 -106.445312 15.785156 -97.785156 17.042969 -96.804688 C 17.183594 -96.664062 17.601562 -93.3125 18.019531 -90.660156 C 19.277344 -83.675781 19.695312 -70.960938 19.136719 -70.960938 C 18.578125 -70.960938 14.945312 -62.164062 14.527344 -60.765625 C 14.386719 -59.789062 13.96875 -60.347656 13.96875 -59.789062 C 13.96875 -59.648438 12.433594 -54.898438 12.152344 -53.78125 C 10.058594 -45.820312 9.359375 -37.578125 9.917969 -30.171875 C 10.058594 -26.121094 10.199219 -25.5625 10.335938 -25.144531 C 10.476562 -24.863281 10.617188 -24.726562 10.476562 -24.585938 C 10.335938 -24.445312 12.292969 -16.484375 16.902344 -14.25 C 18.996094 -13.132812 19.277344 -13.550781 19.558594 -18.859375 C 20.117188 -26.820312 22.351562 -36.179688 20.675781 -70.824219 C 20.253906 -77.808594 36.320312 -96.804688 37.578125 -95.546875 C 38.695312 -94.292969 35.902344 -56.433594 39.53125 -55.039062 C 40.929688 -54.480469 40.371094 -56.574219 40.929688 -61.042969 C 42.1875 -69.566406 43.722656 -75.433594 44.140625 -76.410156 C 44.28125 -76.691406 48.613281 -90.660156 52.523438 -94.292969 C 53.222656 -94.851562 54.898438 -95.6875 55.738281 -96.105469 C 54.339844 -68.449219 54.480469 -69.84375 56.296875 -45.679688 C 56.992188 -35.761719 63.28125 -14.25 63.839844 -11.875 C 64.675781 -6.984375 64.957031 -8.101562 65.933594 -7.683594 Z M 17.742188 -14.808594 C 17.183594 -14.808594 11.453125 -18.160156 10.617188 -30.730469 C 9.359375 -49.589844 16.0625 -62.722656 18.859375 -69.007812 C 19.695312 -70.960938 19.976562 -73.058594 20.253906 -54.898438 C 20.253906 -51.683594 20.535156 -42.605469 20.394531 -40.230469 C 20.253906 -38.273438 20.253906 -37.578125 20.394531 -37.578125 C 20.535156 -37.4375 20.394531 -37.296875 20.253906 -37.15625 C 19.835938 -36.597656 20.675781 -35.339844 20.394531 -34.921875 C 20.253906 -34.78125 19.835938 -30.171875 19.277344 -26.402344 C 18.019531 -15.785156 18.4375 -14.808594 17.742188 -14.808594 Z M 17.742188 -14.808594 "/></g></g></g><g fill="#e8e8e8" fill-opacity="1"><g transform="translate(223.632124, 169.430885)"><g><path d="M 4.191406 -41.070312 C 4.609375 -41.207031 6.285156 -43.722656 6.566406 -44.421875 L 7.125 -45.820312 C 8.101562 -47.773438 8.382812 -50.148438 8.519531 -51.683594 C 8.660156 -51.824219 8.660156 -52.804688 8.660156 -52.941406 C 8.800781 -52.664062 9.636719 -53.082031 9.777344 -53.78125 C 9.5 -54.339844 8.941406 -54.339844 8.382812 -54.339844 C 6.84375 -54.058594 7.824219 -50.847656 5.867188 -46.097656 C 5.585938 -45.539062 4.332031 -41.90625 3.074219 -42.746094 C 2.375 -43.164062 1.816406 -44.28125 1.535156 -45.121094 C 0.558594 -48.753906 2.09375 -50.707031 2.515625 -51.683594 C 2.933594 -52.523438 3.210938 -52.523438 2.792969 -52.941406 C 2.375 -53.363281 1.957031 -53.363281 1.675781 -53.082031 C 1.398438 -52.804688 0.417969 -50.007812 0.28125 -49.449219 C -0.839844 -44.28125 2.515625 -40.371094 4.191406 -41.070312 Z M 4.191406 -41.070312 "/></g></g></g><g fill="#e8e8e8" fill-opacity="1"><g transform="translate(235.645273, 169.430885)"><g><path d="M 0.699219 -58.949219 C 0.976562 -54.617188 3.210938 -58.671875 2.933594 -59.925781 C 2.652344 -60.625 2.09375 -60.625 1.398438 -61.042969 C 0.839844 -61.464844 0.558594 -60.765625 0.699219 -58.949219 Z M 2.652344 -41.488281 C 2.933594 -41.488281 3.210938 -41.488281 3.492188 -41.628906 C 5.308594 -42.464844 8.519531 -45.261719 9.777344 -46.796875 C 9.917969 -47.074219 10.894531 -48.332031 10.335938 -48.332031 C 9.917969 -48.332031 9.359375 -47.632812 9.21875 -47.496094 C 8.941406 -47.214844 4.46875 -42.746094 2.792969 -42.746094 C -0.140625 -42.886719 2.515625 -52.105469 1.535156 -53.363281 C 1.257812 -53.640625 0.558594 -53.640625 0.417969 -53.222656 L 0.417969 -52.941406 C 0.28125 -52.246094 0 -47.914062 0 -47.914062 C 0.140625 -45.261719 -0.140625 -40.929688 2.652344 -41.488281 Z M 2.652344 -41.488281 "/></g></g></g><g fill="#e8e8e8" fill-opacity="1"><g transform="translate(245.004357, 169.430885)"><g><path d="M 5.585938 -36.738281 C 5.867188 -37.019531 5.867188 -37.4375 5.867188 -37.996094 C 5.726562 -38.554688 5.726562 -38.695312 5.167969 -38.695312 C 4.191406 -38.554688 3.632812 -41.347656 3.210938 -42.1875 C 1.957031 -44.699219 0.976562 -53.5 0.558594 -56.574219 C 0.417969 -58.25 0.140625 -60.207031 1.257812 -61.605469 C 4.46875 -65.933594 8.242188 -74.175781 9.359375 -78.644531 C 10.199219 -81.300781 10.335938 -81.019531 10.476562 -82.417969 C 10.617188 -83.675781 10.894531 -83.394531 11.035156 -84.375 L 11.453125 -86.886719 L 11.734375 -90.238281 C 12.011719 -90.660156 11.734375 -93.871094 11.453125 -94.710938 C 11.035156 -96.246094 9.21875 -97.085938 8.242188 -96.386719 C 6.285156 -95.269531 3.910156 -88.003906 2.515625 -84.652344 C 1.398438 -81.71875 0.699219 -76.691406 0.558594 -74.875 C 0.28125 -72.082031 0 -73.617188 -0.699219 -61.042969 C -1.117188 -60.347656 -2.234375 -59.089844 -2.933594 -58.671875 C -4.191406 -57.972656 -2.933594 -56.296875 -1.535156 -57.972656 L -0.839844 -58.808594 C 0.28125 -48.613281 0.699219 -45.820312 1.535156 -43.304688 C 1.816406 -42.046875 2.652344 -40.371094 2.652344 -39.953125 C 2.652344 -39.8125 4.191406 -35.339844 5.585938 -36.738281 Z M 0.558594 -63 L 0.558594 -63.417969 C 0.558594 -63.558594 1.675781 -77.25 2.09375 -78.226562 C 2.09375 -78.226562 2.792969 -82.277344 4.890625 -87.308594 C 5.449219 -88.5625 6.984375 -93.871094 8.800781 -95.410156 C 9.21875 -95.828125 9.359375 -95.828125 10.058594 -95.128906 C 10.757812 -94.429688 10.757812 -94.429688 10.894531 -92.753906 C 11.316406 -87.027344 7.402344 -75.292969 7.402344 -75.851562 C 7.402344 -74.59375 1.257812 -63 0.558594 -63 Z M 0.558594 -63 "/></g></g></g><g fill="#e8e8e8" fill-opacity="1"><g transform="translate(252.687192, 169.430885)"><g><path d="M 0.140625 -42.886719 C 0.699219 -40.929688 3.351562 -39.53125 5.449219 -46.378906 C 6.566406 -50.148438 6.144531 -48.054688 6.425781 -46.378906 C 7.265625 -42.1875 6.984375 -40.089844 11.734375 -43.023438 C 14.808594 -45.121094 18.859375 -49.871094 15.367188 -47.214844 C 14.808594 -46.9375 11.875 -43.863281 9.5 -42.886719 C 7.265625 -41.90625 8.382812 -50.847656 6.566406 -53.222656 C 5.867188 -54.199219 5.308594 -54.480469 4.609375 -54.199219 C 3.492188 -53.78125 -0.976562 -46.796875 0.140625 -42.886719 Z M 1.816406 -42.464844 C 1.117188 -42.328125 0.976562 -45.261719 1.816406 -47.496094 C 2.515625 -49.589844 4.75 -53.222656 5.308594 -53.222656 L 5.585938 -52.804688 C 6.285156 -51.265625 3.210938 -42.746094 1.816406 -42.464844 Z M 1.816406 -42.464844 "/></g></g></g><g fill="#e8e8e8" fill-opacity="1"><g transform="translate(57.542082, 169.430885)"><g><path d="M 14.808594 25.703125 C 26.960938 27.519531 45.121094 7.402344 47.214844 3.351562 C 47.355469 2.933594 47.632812 2.375 47.914062 2.234375 C 48.054688 2.09375 48.191406 1.957031 48.054688 1.816406 C 48.054688 1.675781 48.054688 1.675781 48.191406 1.675781 C 48.613281 1.675781 50.007812 -0.417969 50.007812 -0.839844 C 49.871094 -1.117188 49.871094 -1.257812 50.148438 -1.257812 C 50.429688 -1.257812 51.964844 -3.632812 52.941406 -5.585938 C 55.039062 -9.777344 53.640625 -8.382812 59.367188 -9.777344 C 66.214844 -11.453125 74.59375 -12.292969 80.882812 -12.292969 C 83.394531 -12.292969 84.234375 -12.292969 84.375 -12.433594 C 84.652344 -13.132812 76.269531 -12.992188 76.269531 -12.710938 L 75.152344 -12.710938 C 74.175781 -12.851562 73.894531 -12.710938 73.617188 -12.433594 C 73.476562 -12.152344 73.335938 -12.152344 73.335938 -12.433594 C 73.617188 -13.269531 61.324219 -11.035156 59.089844 -10.476562 C 51.40625 -8.941406 57.972656 -8.941406 59.648438 -31.710938 C 61.042969 -49.730469 57.132812 -63.839844 50.988281 -75.992188 C 48.472656 -81.019531 49.449219 -76.269531 54.058594 -98.761719 C 54.617188 -101.554688 54.480469 -102.53125 53.5 -103.230469 C 51.546875 -104.488281 50.566406 -103.371094 50.007812 -103.371094 C 49.589844 -103.371094 48.472656 -102.253906 47.496094 -101.835938 C 45.679688 -100.855469 43.722656 -97.921875 44.003906 -97.785156 C 44.003906 -97.785156 43.863281 -97.363281 43.582031 -96.945312 C 43.445312 -96.664062 43.164062 -95.96875 43.164062 -95.546875 L 42.886719 -94.570312 C 42.605469 -94.292969 42.328125 -91.636719 42.605469 -91.496094 C 42.605469 -91.496094 42.746094 -90.9375 42.746094 -90.378906 C 42.886719 -88.703125 43.722656 -86.328125 45.261719 -83.953125 C 46.796875 -81.441406 47.773438 -79.761719 48.054688 -79.625 C 48.332031 -79.34375 48.472656 -77.949219 48.054688 -77.527344 C 47.914062 -77.25 47.773438 -76.828125 47.773438 -76.550781 C 47.773438 -75.710938 46.796875 -75.152344 46.9375 -74.035156 C 46.9375 -74.035156 42.464844 -63.417969 42.328125 -63.417969 C 42.046875 -63.28125 38.136719 -56.15625 38.136719 -56.296875 C 38.136719 -55.738281 29.195312 -44.140625 28.496094 -43.164062 C 23.746094 -37.019531 19.136719 -33.664062 21.09375 -33.246094 C 22.070312 -32.96875 23.328125 -33.945312 25.003906 -36.460938 C 25.285156 -36.878906 35.0625 -50.429688 35.0625 -50.566406 C 35.0625 -50.847656 35.0625 -50.988281 35.203125 -50.988281 C 35.339844 -50.988281 35.761719 -51.40625 36.039062 -51.964844 C 36.738281 -52.941406 37.714844 -54.058594 37.578125 -54.199219 L 37.996094 -54.898438 C 38.554688 -55.457031 39.394531 -56.855469 39.394531 -57.132812 C 39.394531 -57.273438 39.394531 -57.273438 39.53125 -57.273438 C 39.671875 -57.273438 39.8125 -57.550781 39.953125 -57.832031 C 40.371094 -58.808594 40.789062 -58.671875 40.789062 -59.230469 C 40.929688 -59.925781 42.464844 -61.742188 42.746094 -62.722656 C 42.886719 -63.140625 43.023438 -63.28125 43.023438 -63.28125 C 43.722656 -63.28125 48.613281 -77.109375 49.03125 -77.109375 C 49.730469 -77.109375 54.617188 -65.65625 54.617188 -65.375 C 54.617188 -65.234375 54.898438 -64.535156 55.179688 -63.699219 C 56.296875 -60.90625 57.273438 -55.457031 57.273438 -55.457031 C 59.507812 -49.589844 59.648438 -24.304688 55.179688 -13.132812 C 53.78125 -10.199219 55.039062 -9.777344 51.125 -8.660156 C 45.539062 -7.125 44.5625 -6.566406 44.5625 -6.566406 C 44.421875 -6.566406 38.414062 -4.191406 38.414062 -4.050781 C 37.714844 -3.773438 37.4375 -3.492188 36.738281 -3.351562 C 35.339844 -2.375 33.664062 -1.816406 34.363281 -1.675781 C 34.78125 -1.535156 37.019531 -2.652344 37.019531 -2.933594 C 36.878906 -3.074219 37.15625 -3.074219 37.15625 -3.074219 C 37.296875 -2.792969 37.578125 -2.933594 39.253906 -3.632812 C 41.765625 -5.027344 41.488281 -4.332031 43.722656 -5.449219 C 44.421875 -5.867188 44.699219 -5.726562 44.699219 -6.007812 C 44.699219 -6.007812 44.839844 -6.144531 45.121094 -6.144531 L 47.496094 -6.707031 C 53.222656 -8.519531 53.640625 -8.941406 52.246094 -6.566406 C 51.964844 -6.007812 51.683594 -5.449219 51.683594 -5.308594 C 51.683594 -4.75 51.40625 -5.167969 51.125 -4.46875 C 51.125 -4.191406 45.261719 6.566406 31.847656 18.300781 C 23.609375 25.421875 15.226562 26.121094 12.433594 24.304688 C 10.617188 23.050781 10.335938 22.351562 10.757812 20.394531 C 10.894531 19.417969 12.152344 16.761719 12.570312 16.203125 C 12.851562 16.0625 15.367188 12.011719 18.160156 9.5 C 19.136719 8.660156 20.535156 7.265625 20.675781 7.402344 C 20.675781 7.402344 20.8125 7.402344 20.8125 7.265625 C 20.8125 7.125 21.09375 6.84375 21.652344 6.425781 C 23.050781 5.449219 22.488281 5.726562 24.585938 4.332031 C 25.84375 3.492188 26.121094 3.210938 25.703125 3.074219 C 25.5625 2.792969 22.910156 4.609375 22.488281 5.167969 C 22.351562 5.449219 22.070312 5.585938 21.929688 5.585938 C 20.675781 5.585938 0.699219 23.609375 14.808594 25.703125 Z M 49.3125 -81.578125 C 48.753906 -80.882812 49.449219 -79.203125 47.773438 -81.859375 C 45.539062 -85.210938 41.765625 -90.519531 44.839844 -97.085938 C 46.796875 -101.277344 50.707031 -102.953125 52.246094 -102.8125 C 53.363281 -102.671875 53.78125 -102.113281 53.640625 -101.835938 C 53.640625 -101.835938 53.640625 -100.996094 51.964844 -92.195312 C 50.988281 -86.886719 49.730469 -82.695312 49.730469 -82.695312 C 49.589844 -82.277344 49.449219 -81.71875 49.3125 -81.578125 Z M 99.738281 -8.242188 C 100.160156 -7.683594 100.855469 -7.683594 100.71875 -8.242188 L 100.578125 -8.800781 C 100.578125 -10.335938 98.480469 -9.777344 96.945312 -10.476562 C 96.527344 -10.757812 95.828125 -10.894531 95.6875 -10.894531 C 95.410156 -10.894531 95.128906 -11.035156 95.128906 -11.175781 C 94.988281 -11.316406 92.753906 -11.59375 91.777344 -11.875 C 87.585938 -12.992188 88.84375 -13.269531 87.726562 -12.710938 C 87.308594 -12.570312 86.886719 -12.433594 86.609375 -12.570312 C 85.910156 -12.851562 84.652344 -12.710938 84.652344 -12.433594 C 84.652344 -12.292969 84.933594 -12.292969 85.070312 -12.292969 C 88.5625 -12.011719 98.0625 -10.199219 99.738281 -8.242188 Z M 25.984375 2.933594 C 25.984375 2.933594 26.542969 2.933594 26.542969 2.792969 C 26.542969 2.792969 27.101562 2.933594 27.9375 2.234375 L 28.078125 2.09375 C 29.054688 1.675781 30.871094 0.140625 31.289062 0.140625 C 31.570312 0.140625 31.429688 -0.558594 31.570312 -0.28125 C 31.710938 0 33.105469 -0.699219 32.96875 -0.976562 C 32.96875 -1.117188 33.105469 -1.398438 33.386719 -1.398438 C 33.945312 -1.675781 33.386719 -1.675781 32.6875 -1.398438 L 31.429688 -0.558594 C 29.894531 0.140625 29.613281 0.417969 29.753906 0.558594 C 29.894531 0.558594 29.753906 0.699219 29.476562 0.699219 C 29.335938 0.558594 29.195312 0.558594 28.914062 0.839844 C 27.9375 1.398438 27.378906 1.535156 27.238281 1.957031 C 27.238281 2.09375 25.84375 2.792969 25.984375 2.933594 Z M 25.984375 2.933594 "/></g></g></g><g fill="#e8e8e8" fill-opacity="1"><g transform="translate(127.525685, 169.430885)"><g><path d="M 2.652344 -41.347656 C 2.792969 -41.207031 4.332031 -40.789062 5.867188 -42.046875 C 7.542969 -43.445312 8.101562 -44.699219 8.660156 -47.632812 C 9.21875 -50.148438 9.21875 -50.148438 8.800781 -51.125 C 8.382812 -52.105469 7.265625 -53.78125 6.984375 -53.78125 C 6.425781 -53.921875 6.84375 -54.898438 4.890625 -54.617188 C 1.816406 -53.921875 -0.140625 -50.847656 3.351562 -44.980469 C 3.632812 -44.5625 4.46875 -44.28125 4.46875 -44.699219 C 4.609375 -44.980469 4.050781 -46.65625 3.632812 -47.214844 C 1.257812 -51.125 4.332031 -54.757812 6.707031 -52.246094 C 9.917969 -48.472656 4.890625 -40.648438 2.792969 -43.164062 C 0.976562 -45.261719 2.09375 -48.054688 1.117188 -48.753906 C 0.140625 -49.449219 0.140625 -48.332031 0 -48.054688 C 0.28125 -47.496094 0 -47.355469 0.28125 -45.539062 C 0.699219 -45.121094 0.976562 -42.1875 2.652344 -41.347656 Z M 2.652344 -41.347656 "/></g></g></g><g fill="#e8e8e8" fill-opacity="1"><g transform="translate(139.399154, 169.430885)"><g><path d="M 0.558594 -7.402344 C 2.375 -6.007812 1.257812 -18.71875 2.652344 -29.054688 C 3.351562 -33.105469 2.515625 -36.597656 2.234375 -36.738281 C 1.675781 -37.15625 3.074219 -37.4375 5.449219 -37.578125 C 6.707031 -37.578125 7.125 -37.4375 7.542969 -37.15625 C 8.519531 -36.320312 9.359375 -37.019531 8.382812 -37.855469 C 6.984375 -39.253906 1.957031 -37.996094 1.535156 -38.695312 C 1.398438 -39.253906 1.257812 -49.171875 1.535156 -49.3125 L 1.535156 -50.289062 C 1.398438 -50.988281 1.257812 -59.367188 1.816406 -60.347656 C 6.425781 -69.148438 6.285156 -72.640625 6.285156 -77.386719 C 6.285156 -82.835938 6.144531 -83.675781 4.890625 -83.8125 C 4.191406 -83.8125 4.191406 -83.8125 3.632812 -82.976562 C 1.675781 -79.484375 1.117188 -71.941406 0.976562 -69.84375 C 0.140625 -59.089844 1.117188 -61.324219 -1.257812 -57.414062 C -2.933594 -54.480469 -3.910156 -53.640625 -2.933594 -53.082031 C -2.375 -52.664062 -0.140625 -56.855469 0.140625 -57.414062 C 0.28125 -39.253906 0.417969 -39.953125 -0.417969 -40.230469 C -0.558594 -40.230469 -3.632812 -40.230469 -3.492188 -38.414062 C -3.210938 -36.878906 -0.839844 -36.878906 0.417969 -36.878906 L 0.417969 -34.363281 C 0.558594 -21.09375 -0.28125 -7.960938 0.558594 -7.402344 Z M 1.675781 -62.582031 C 1.398438 -62.582031 2.375 -72.640625 2.375 -72.917969 C 2.792969 -77.386719 4.890625 -83.117188 4.890625 -81.859375 C 5.027344 -81.71875 5.867188 -76.269531 4.890625 -71.382812 C 4.332031 -68.449219 2.234375 -62.582031 1.675781 -62.582031 Z M -1.398438 -38.414062 C -1.535156 -38.414062 -1.675781 -38.414062 -1.675781 -38.554688 C -1.675781 -38.972656 0 -38.835938 0.28125 -38.414062 C 0.699219 -37.855469 -0.140625 -38.414062 -1.398438 -38.414062 Z M 1.398438 -30.871094 C 1.257812 -38.695312 1.816406 -34.921875 1.816406 -31.847656 C 1.957031 -29.335938 1.535156 -28.496094 1.398438 -30.871094 Z M 1.398438 -30.871094 "/></g></g></g><g fill="#e8e8e8" fill-opacity="1"><g transform="translate(146.104173, 169.430885)"><g><path d="M 0.699219 -58.949219 C 0.976562 -54.617188 3.210938 -58.671875 2.933594 -59.925781 C 2.652344 -60.625 2.09375 -60.625 1.398438 -61.042969 C 0.839844 -61.464844 0.558594 -60.765625 0.699219 -58.949219 Z M 2.652344 -41.488281 C 2.933594 -41.488281 3.210938 -41.488281 3.492188 -41.628906 C 5.308594 -42.464844 8.519531 -45.261719 9.777344 -46.796875 C 9.917969 -47.074219 10.894531 -48.332031 10.335938 -48.332031 C 9.917969 -48.332031 9.359375 -47.632812 9.21875 -47.496094 C 8.941406 -47.214844 4.46875 -42.746094 2.792969 -42.746094 C -0.140625 -42.886719 2.515625 -52.105469 1.535156 -53.363281 C 1.257812 -53.640625 0.558594 -53.640625 0.417969 -53.222656 L 0.417969 -52.941406 C 0.28125 -52.246094 0 -47.914062 0 -47.914062 C 0.140625 -45.261719 -0.140625 -40.929688 2.652344 -41.488281 Z M 2.652344 -41.488281 "/></g></g></g><g fill="#e8e8e8" fill-opacity="1"><g transform="translate(155.463257, 169.430885)"><g><path d="M 0.140625 -42.886719 C 0.699219 -40.929688 3.351562 -39.53125 5.449219 -46.378906 C 6.566406 -50.148438 6.144531 -48.054688 6.425781 -46.378906 C 7.265625 -42.1875 6.984375 -40.089844 11.734375 -43.023438 C 14.808594 -45.121094 18.859375 -49.871094 15.367188 -47.214844 C 14.808594 -46.9375 11.875 -43.863281 9.5 -42.886719 C 7.265625 -41.90625 8.382812 -50.847656 6.566406 -53.222656 C 5.867188 -54.199219 5.308594 -54.480469 4.609375 -54.199219 C 3.492188 -53.78125 -0.976562 -46.796875 0.140625 -42.886719 Z M 1.816406 -42.464844 C 1.117188 -42.328125 0.976562 -45.261719 1.816406 -47.496094 C 2.515625 -49.589844 4.75 -53.222656 5.308594 -53.222656 L 5.585938 -52.804688 C 6.285156 -51.265625 3.210938 -42.746094 1.816406 -42.464844 Z M 1.816406 -42.464844 "/></g></g></g></svg>